<svg id="Layer_1" data-name="Layer 1" xmlns="http://www.w3.org/2000/svg" viewBox="0 0 792 875"><defs><style>.cls-1{fill:#464646;}</style></defs><path class="cls-1" d="M859.75,485.5H625.25A76.25,76.25,0,0,1,549,409.25V178.75a76.25,76.25,0,0,0-76.25-76.25H220.25A76.25,76.25,0,0,0,144,178.75v722.5a76.25,76.25,0,0,0,76.25,76.25h639.5A76.25,76.25,0,0,0,936,901.25V561.75A76.25,76.25,0,0,0,859.75,485.5ZM778.51,725.26c-47,29.27-140,78.09-236.51,78.09-94.24,0-187.22-48.9-234.37-78.12A35,35,0,0,1,298,674.5l2.23-3a35,35,0,0,1,46.52-8.83c40.19,24.83,119.54,67,195.25,67,77.92,0,157.25-42.06,197.26-66.87a35,35,0,0,1,46.45,8.65l2.28,3A35,35,0,0,1,778.51,725.26Z" transform="translate(-144 -102.5)"/><path class="cls-1" d="M600.63,407l3-229.62a12.56,12.56,0,0,1,21.44-8.72l248.1,248.1a12.56,12.56,0,0,1-8.72,21.45l-229.62,3A33.75,33.75,0,0,1,600.63,407Z" transform="translate(-144 -102.5)"/></svg>