<svg id="Layer_1" data-name="Layer 1" xmlns="http://www.w3.org/2000/svg" viewBox="0 0 792 875"><defs><style>.cls-1{fill:#fff;}.cls-2{fill:#464646;}</style></defs><path class="cls-1" d="M220.25,102.5h252.5A76.25,76.25,0,0,1,549,178.75v230.5a76.25,76.25,0,0,0,76.25,76.25h234.5A76.25,76.25,0,0,1,936,561.75v339.5a76.25,76.25,0,0,1-76.25,76.25H220.25A76.25,76.25,0,0,1,144,901.25V178.75A76.25,76.25,0,0,1,220.25,102.5Z" transform="translate(-144 -102.5)"/><path class="cls-1" d="M600.63,407l3-229.62a12.56,12.56,0,0,1,21.44-8.72l248.1,248.1a12.56,12.56,0,0,1-8.72,21.45l-229.62,3A33.75,33.75,0,0,1,600.63,407Z" transform="translate(-144 -102.5)"/><path class="cls-2" d="M542,803.35c-94.24,0-187.22-48.9-234.37-78.12A35,35,0,0,1,298,674.5h0l2.23-3a35,35,0,0,1,46.52-8.83c40.19,24.83,119.54,67,195.25,67,77.92,0,157.25-42.06,197.26-66.87a35,35,0,0,1,46.45,8.65l2.28,3a35,35,0,0,1-9.48,50.82C731.47,754.53,638.54,803.35,542,803.35Z" transform="translate(-144 -102.5)"/></svg>